# xmcd CD database file
#
# Track frame offsets:
#	150
#	27290
#	53177
#	82157
#	109930
#	135150
#	162312
#	188257
#
# Disc length: 2879 seconds
#
# Revision: 4
# Processed by: cddbd v1.5PL3 Copyright (c) Steve Scherf et al.
# Submitted via: CDex 1.50beta8
#
DISCID=5d0b3d08
DTITLE=上田正樹 - Here, I am
DYEAR=1993
DGENRE=JPop
TTITLE0=Takako My love
TTITLE1=悲しい色やね
TTITLE2=ずっと遠くで
TTITLE3=わがまま
TTITLE4=おまえが見えない
TTITLE5=Takako My love（カラオケ）
TTITLE6=悲しい色やね（カラオケ）
TTITLE7=わがまま（カラオケ）
EXTD=YEAR: 1993
EXTT0=
EXTT1=
EXTT2=
EXTT3=
EXTT4=
EXTT5=
EXTT6=
EXTT7=
PLAYORDER=
